<svg xmlns="http://www.w3.org/2000/svg" xmlns:xlink="http://www.w3.org/1999/xlink" version="1.1" archibusversion="24.3" viewBox="-1518.94,44518.17,1407,729" id="svgDiv-A4 - PHYSICS ELECTRONICS DEPT-F2-svg" width="100%" height="100%" style="transform: translate3d(0px, 0px, 0px); transform-origin: 0px 0px 0px; backface-visibility: hidden;"> <view id="defaultView" viewBox="-1518.94 44518.17 1407 729" units="inches"></view> <defs> <style> .i0 {stroke:#000000;} .a-wall {stroke:#000000;} .a-flor {stroke:#000000;} .a-glaz {stroke:#000000;} .s-strs {stroke:#000000;} .s-strs-iden {stroke:#000000;} .a-door {stroke:#000000;} .a-glaz-curt {stroke:#000000;} .a-glaz-cwmg {stroke:#000000;} .a-flor-hral {stroke:#000000;} .a-area {stroke:#ff0000;} .a-wall-patt {stroke:#000000;} .a-flor-patt {stroke:#000000;} .s-strs-anno {stroke:#000000;} .a-door-fram {stroke:#ffbf7f;} .a-area-bndy {stroke:#ff0000;fill:#EEEEEE; fill-opacity:0.7;} .a-area-iden {stroke:#000000;} .cnc-0 {stroke:#000000;fill:#000000; fill-opacity:0.7;} .cnc-1 {stroke:#000000;} .cnc-2 {stroke:#00a600;}</style> <symbol id="top window - ZNC7-1356765-F2" overflow="visible" class="a-glaz"> <path d="M-10.31,-0.49l46.3,0M35.98,0.49l-46.3,0M37.72,0.49l0,-0.98M37.72,-0.49l-1.73,0M35.98,-0.49l0,0.98M35.98,0.49l1.73,0M-10.31,-0.49l0,0.98M-10.31,0.49l-1.73,0M-12.05,0.49l0,-0.98M-12.05,-0.49l1.73,0M-5.87,-0.61l-0.09,0M29.34,-0.61l-1.26,0M27.74,-0.61l-0.34,0M27.05,-0.61l-1.47,0M22.48,-0.61l-3.31,0M18.74,-0.61l-3.03,0M15.27,-0.61l-0.88,0M13.95,-0.61l-1.77,0M10.4,-0.61l-1.76,0M6.87,-0.61l-3,0M3.45,-0.61l-2.87,0M0.17,-0.61l-1.53,0M-2.12,-0.61l-1.47,0M-3.93,-0.61l-0.34,0M-4.61,-0.61l-1.26,0M29.43,-0.61l-0.09,0M-5.97,-0.61l-7.26,0M29.43,-0.61l-0.75,0l-0.78,0l-0.8,0l-0.83,0l-0.85,0l-0.87,0l-0.89,0l-0.91,0l-0.93,0l-0.95,0l-0.96,0l-0.97,0l-0.98,0l-0.99,0l-1,0l-1.01,0l-1.02,0l-1.02,0l-1.02,0l-1.02,0l-1.02,0l-1.02,0l-1.01,0l-1.01,0l-1,0l-0.99,0l-0.98,0l-0.96,0l-0.95,0l-0.93,0l-0.92,0l-0.9,0l-0.88,0l-0.86,0l-0.83,0l-0.81,0l-0.79,0l-0.76,0l-0.24,0M36.69,-0.61l-7.26,0M-13.11,0.33l0,-0.08M-13.11,0.33l7.19,0M-5.92,0.33l0,-0.08M29.39,0.33l-35.31,0M29.39,0.33l0,-0.08M29.39,0.26l-35.31,0M29.39,0.26l7.19,0M-5.92,0.26l-7.19,0M36.57,0.33l-7.19,0M36.57,0.33l0,-0.08M37.72,-0.49l-7.87,0M36.73,0.37l-7.28,0M29.84,-0.49l0,0.12M-6.38,-0.49l36.22,0M-6.38,-0.49l0,0.12M-6.38,-0.37l36.22,0M-6.38,-0.37l-7.87,0M29.84,-0.37l7.87,0M29.39,-0.37l0,0.75M-5.92,-0.37l0,0.75M29.45,0.37l0,0.12M-5.99,0.37l35.44,0M-5.99,0.37l0,0.12M-5.99,0.49l35.44,0M-5.99,0.49l-7.28,0M29.45,0.49l7.28,0M-14.25,-0.49l7.87,0M-14.25,-0.49l0,0.12M-13.11,-0.37l0,0.75M-13.27,0.37l7.28,0M-13.27,0.37l0,0.12M37.72,-0.37l0,-0.12M36.57,0.37l0,-0.75M36.73,0.49l0,-0.12"></path> </symbol> <symbol id="top window - ZNC7-V1-F2" overflow="visible" class="a-glaz"> <path d="M-10.31,-0.49l46.3,0M35.98,0.49l-46.3,0M37.72,0.49l0,-0.98M37.72,-0.49l-1.73,0M35.98,-0.49l0,0.98M35.98,0.49l1.73,0M-10.31,-0.49l0,0.98M-10.31,0.49l-1.73,0M-12.05,0.49l0,-0.98M-12.05,-0.49l1.73,0M-5.87,-0.61l-0.1,0M29.34,-0.61l-1.26,0M27.74,-0.61l-0.34,0M27.05,-0.61l-1.47,0M22.48,-0.61l-3.31,0M18.74,-0.61l-3.03,0M15.27,-0.61l-0.88,0M13.95,-0.61l-1.77,0M10.4,-0.61l-1.76,0M6.87,-0.61l-3,0M3.45,-0.61l-2.87,0M0.17,-0.61l-1.53,0M-2.12,-0.61l-1.47,0M-3.93,-0.61l-0.34,0M-4.61,-0.61l-1.26,0M29.43,-0.61l-0.09,0M-5.97,-0.61l-7.26,0M29.43,-0.61l-0.75,0l-0.78,0l-0.8,0l-0.83,0l-0.85,0l-0.87,0l-0.89,0l-0.91,0l-0.93,0l-0.95,0l-0.96,0l-0.97,0l-0.98,0l-0.99,0l-1,0l-1.01,0l-1.02,0l-1.02,0l-1.02,0l-1.02,0l-1.02,0l-1.02,0l-1.01,0l-1.01,0l-1,0l-0.99,0l-0.98,0l-0.96,0l-0.95,0l-0.93,0l-0.92,0l-0.9,0l-0.88,0l-0.86,0l-0.83,0l-0.81,0l-0.79,0l-0.76,0l-0.24,0M36.69,-0.61l-7.26,0M-13.11,0.33l0,-0.08M-13.11,0.33l7.19,0M-5.92,0.33l0,-0.08M29.39,0.33l-35.31,0M29.39,0.33l0,-0.08M29.39,0.26l-35.31,0M29.39,0.26l7.19,0M-5.92,0.26l-7.19,0M36.57,0.33l-7.19,0M36.57,0.33l0,-0.08M37.72,-0.49l-7.87,0M36.73,0.37l-7.28,0M29.84,-0.49l0,0.12M-6.38,-0.49l36.22,0M-6.38,-0.49l0,0.12M-6.38,-0.37l36.22,0M-6.38,-0.37l-7.87,0M29.84,-0.37l7.87,0M29.39,-0.37l0,0.75M-5.92,-0.37l0,0.75M29.45,0.37l0,0.12M-5.99,0.37l35.44,0M-5.99,0.37l0,0.12M-5.99,0.49l35.44,0M-5.99,0.49l-7.28,0M29.45,0.49l7.28,0M-14.25,-0.49l7.87,0M-14.25,-0.49l0,0.12M-13.11,-0.37l0,0.75M-13.27,0.37l7.28,0M-13.27,0.37l0,0.12M37.72,-0.37l0,-0.12M36.57,0.37l0,-0.75M36.73,0.49l0,-0.12"></path> </symbol> <symbol id="top window - ZNC7-V2-F2" overflow="visible" class="a-glaz"> <path d="M-10.31,-0.49l46.3,0M35.98,0.49l-46.3,0M37.72,0.49l0,-0.98M37.72,-0.49l-1.73,0M35.98,-0.49l0,0.98M35.98,0.49l1.73,0M-10.31,-0.49l0,0.98M-10.31,0.49l-1.73,0M-12.05,0.49l0,-0.98M-12.05,-0.49l1.73,0M-5.87,-0.61l-0.09,0M29.34,-0.61l-1.26,0M27.74,-0.61l-0.34,0M27.05,-0.61l-1.47,0M22.48,-0.61l-3.31,0M18.74,-0.61l-3.03,0M15.27,-0.61l-0.88,0M13.95,-0.61l-1.77,0M10.4,-0.61l-0.06,0M10.31,-0.61l-1.67,0M6.87,-0.61l-3,0M3.45,-0.61l-2.87,0M0.17,-0.61l-1.53,0M-2.12,-0.61l-1.47,0M-3.93,-0.61l-0.34,0M-4.61,-0.61l-1.26,0M29.43,-0.61l-0.09,0M-5.97,-0.61l-7.26,0M29.43,-0.61l-0.75,0l-0.78,0l-0.8,0l-0.83,0l-0.85,0l-0.87,0l-0.89,0l-0.91,0l-0.93,0l-0.95,0l-0.96,0l-0.97,0l-0.98,0l-0.99,0l-1,0l-1.01,0l-1.02,0l-1.02,0l-1.02,0l-1.02,0l-1.02,0l-1.02,0l-1.01,0l-1.01,0l-1,0l-0.99,0l-0.98,0l-0.96,0l-0.95,0l-0.93,0l-0.92,0l-0.9,0l-0.88,0l-0.86,0l-0.83,0l-0.81,0l-0.79,0l-0.76,0l-0.24,0M36.69,-0.61l-7.26,0M-13.11,0.33l0,-0.08M-13.11,0.33l7.19,0M-5.92,0.33l0,-0.08M29.39,0.33l-35.31,0M29.39,0.33l0,-0.08M29.39,0.26l-35.31,0M29.39,0.26l7.19,0M-5.92,0.26l-7.19,0M36.57,0.33l-7.19,0M36.57,0.33l0,-0.08M37.72,-0.49l-7.87,0M36.73,0.37l-7.28,0M29.84,-0.49l0,0.12M-6.38,-0.49l36.22,0M-6.38,-0.49l0,0.12M-6.38,-0.37l36.22,0M-6.38,-0.37l-7.87,0M29.84,-0.37l7.87,0M29.39,-0.37l0,0.75M-5.92,-0.37l0,0.75M29.45,0.37l0,0.12M-5.99,0.37l35.44,0M-5.99,0.37l0,0.12M-5.99,0.49l35.44,0M-5.99,0.49l-7.28,0M29.45,0.49l7.28,0M-14.25,-0.49l7.87,0M-14.25,-0.49l0,0.12M-13.11,-0.37l0,0.75M-13.27,0.37l7.28,0M-13.27,0.37l0,0.12M37.72,-0.37l0,-0.12M36.57,0.37l0,-0.75M36.73,0.49l0,-0.12"></path> </symbol> <symbol id="top window - ZNC7-V3-F2" overflow="visible" class="a-glaz"> <path d="M-10.31,-0.49l46.3,0M35.98,0.49l-46.3,0M37.72,0.49l0,-0.98M37.72,-0.49l-1.73,0M35.98,-0.49l0,0.98M35.98,0.49l1.73,0M-10.31,-0.49l0,0.98M-10.31,0.49l-1.73,0M-12.05,0.49l0,-0.98M-12.05,-0.49l1.73,0M-5.87,-0.61l-0.09,0M29.34,-0.61l-1.26,0M27.74,-0.61l-0.34,0M27.05,-0.61l-1.47,0M22.48,-0.61l-3.31,0M18.74,-0.61l-3.03,0M15.27,-0.61l-0.88,0M13.95,-0.61l-1.77,0M10.4,-0.61l-1.76,0M6.87,-0.61l-3,0M3.45,-0.61l-2.87,0M0.17,-0.61l-1.53,0M-2.12,-0.61l-1.47,0M-3.93,-0.61l-0.31,0M-4.61,-0.61l-1.26,0M29.43,-0.61l-0.09,0M-5.97,-0.61l-7.26,0M29.43,-0.61l-0.75,0l-0.78,0l-0.8,0l-0.83,0l-0.85,0l-0.87,0l-0.89,0l-0.91,0l-0.93,0l-0.95,0l-0.96,0l-0.97,0l-0.98,0l-0.99,0l-1,0l-1.01,0l-1.02,0l-1.02,0l-1.02,0l-1.02,0l-1.02,0l-1.02,0l-1.01,0l-1.01,0l-1,0l-0.99,0l-0.98,0l-0.96,0l-0.95,0l-0.93,0l-0.92,0l-0.9,0l-0.88,0l-0.86,0l-0.83,0l-0.81,0l-0.79,0l-0.76,0l-0.24,0M36.69,-0.61l-7.26,0M-13.11,0.33l0,-0.08M-13.11,0.33l7.19,0M-5.92,0.33l0,-0.08M29.39,0.33l-35.31,0M29.39,0.33l0,-0.08M29.39,0.26l-35.31,0M29.39,0.26l7.19,0M-5.92,0.26l-7.19,0M36.57,0.33l-7.19,0M36.57,0.33l0,-0.08M37.72,-0.49l-7.87,0M36.73,0.37l-7.28,0M29.84,-0.49l0,0.12M-6.38,-0.49l36.22,0M-6.38,-0.49l0,0.12M-6.38,-0.37l36.22,0M-6.38,-0.37l-7.87,0M29.84,-0.37l7.87,0M29.39,-0.37l0,0.75M-5.92,-0.37l0,0.75M29.45,0.37l0,0.12M-5.99,0.37l35.44,0M-5.99,0.37l0,0.12M-5.99,0.49l35.44,0M-5.99,0.49l-7.28,0M29.45,0.49l7.28,0M-14.25,-0.49l7.87,0M-14.25,-0.49l0,0.12M-13.11,-0.37l0,0.75M-13.27,0.37l7.28,0M-13.27,0.37l0,0.12M37.72,-0.37l0,-0.12M36.57,0.37l0,-0.75M36.73,0.49l0,-0.12"></path> </symbol> <symbol id="top window - ZNC7-V4-F2" overflow="visible" class="a-glaz"> <path d="M-10.31,-0.49l46.3,0M35.98,0.49l-46.3,0M37.72,0.49l0,-0.98M37.72,-0.49l-1.73,0M35.98,-0.49l0,0.98M35.98,0.49l1.73,0M-10.31,-0.49l0,0.98M-10.31,0.49l-1.73,0M-12.05,0.49l0,-0.98M-12.05,-0.49l1.73,0M-5.87,-0.61l-0.09,0M29.34,-0.61l-1.26,0M27.74,-0.61l-0.34,0M27.05,-0.61l-1.47,0M22.48,-0.61l-3.31,0M18.74,-0.61l-2.99,0M15.27,-0.61l-0.88,0M13.95,-0.61l-1.77,0M10.4,-0.61l-1.76,0M6.87,-0.61l-3,0M3.45,-0.61l-2.87,0M0.17,-0.61l-1.53,0M-2.12,-0.61l-1.47,0M-3.93,-0.61l-0.34,0M-4.61,-0.61l-1.26,0M29.43,-0.61l-0.09,0M-5.97,-0.61l-7.26,0M29.43,-0.61l-0.75,0l-0.78,0l-0.8,0l-0.83,0l-0.85,0l-0.87,0l-0.89,0l-0.91,0l-0.93,0l-0.95,0l-0.96,0l-0.97,0l-0.98,0l-0.99,0l-1,0l-1.01,0l-1.02,0l-1.02,0l-1.02,0l-1.02,0l-1.02,0l-1.02,0l-1.01,0l-1.01,0l-1,0l-0.99,0l-0.98,0l-0.96,0l-0.95,0l-0.93,0l-0.92,0l-0.9,0l-0.88,0l-0.86,0l-0.83,0l-0.81,0l-0.79,0l-0.76,0l-0.24,0M36.69,-0.61l-7.26,0M-13.11,0.33l0,-0.08M-13.11,0.33l7.19,0M-5.92,0.33l0,-0.08M29.39,0.33l-35.31,0M29.39,0.33l0,-0.08M29.39,0.26l-35.31,0M29.39,0.26l7.19,0M-5.92,0.26l-7.19,0M36.57,0.33l-7.19,0M36.57,0.33l0,-0.08M37.72,-0.49l-7.87,0M36.73,0.37l-7.28,0M29.84,-0.49l0,0.12M-6.38,-0.49l36.22,0M-6.38,-0.49l0,0.12M-6.38,-0.37l36.22,0M-6.38,-0.37l-7.87,0M29.84,-0.37l7.87,0M29.39,-0.37l0,0.75M-5.92,-0.37l0,0.75M29.45,0.37l0,0.12M-5.99,0.37l35.44,0M-5.99,0.37l0,0.12M-5.99,0.49l35.44,0M-5.99,0.49l-7.28,0M29.45,0.49l7.28,0M-14.25,-0.49l7.87,0M-14.25,-0.49l0,0.12M-13.11,-0.37l0,0.75M-13.27,0.37l7.28,0M-13.27,0.37l0,0.12M37.72,-0.37l0,-0.12M36.57,0.37l0,-0.75M36.73,0.49l0,-0.12"></path> </symbol> <symbol id="top window - ZNC7-V5-F2" overflow="visible" class="a-glaz"> <path d="M-10.31,-0.49l46.3,0M35.98,0.49l-46.3,0M37.72,0.49l0,-0.98M37.72,-0.49l-1.73,0M35.98,-0.49l0,0.98M35.98,0.49l1.73,0M-10.31,-0.49l0,0.98M-10.31,0.49l-1.73,0M-12.05,0.49l0,-0.98M-12.05,-0.49l1.73,0M-5.87,-0.61l-0.09,0M29.34,-0.61l-1.26,0M27.74,-0.61l-0.34,0M27.05,-0.61l-1.47,0M22.48,-0.61l-3.31,0M18.74,-0.61l-3.03,0M15.27,-0.61l-0.88,0M13.95,-0.61l-1.77,0M10.4,-0.61l-1.76,0M6.87,-0.61l-3,0M3.45,-0.61l-2.87,0M0.17,-0.61l-1.53,0M-2.12,-0.61l-1.47,0M-3.93,-0.61l-0.33,0M-4.61,-0.61l-1.26,0M29.43,-0.61l-0.09,0M-5.97,-0.61l-7.26,0M29.43,-0.61l-0.75,0l-0.78,0l-0.8,0l-0.83,0l-0.85,0l-0.87,0l-0.89,0l-0.91,0l-0.93,0l-0.95,0l-0.96,0l-0.97,0l-0.98,0l-0.99,0l-1,0l-1.01,0l-1.02,0l-1.02,0l-1.02,0l-1.02,0l-1.02,0l-1.02,0l-1.01,0l-1.01,0l-1,0l-0.99,0l-0.98,0l-0.96,0l-0.95,0l-0.93,0l-0.92,0l-0.9,0l-0.88,0l-0.86,0l-0.83,0l-0.81,0l-0.79,0l-0.76,0l-0.24,0M36.69,-0.61l-7.26,0M-13.11,0.33l0,-0.08M-13.11,0.33l7.19,0M-5.92,0.33l0,-0.08M29.39,0.33l-35.31,0M29.39,0.33l0,-0.08M29.39,0.26l-35.31,0M29.39,0.26l7.19,0M-5.92,0.26l-7.19,0M36.57,0.33l-7.19,0M36.57,0.33l0,-0.08M37.72,-0.49l-7.87,0M36.73,0.37l-7.28,0M29.84,-0.49l0,0.12M-6.38,-0.49l36.22,0M-6.38,-0.49l0,0.12M-6.38,-0.37l36.22,0M-6.38,-0.37l-7.87,0M29.84,-0.37l7.87,0M29.39,-0.37l0,0.75M-5.92,-0.37l0,0.75M29.45,0.37l0,0.12M-5.99,0.37l35.44,0M-5.99,0.37l0,0.12M-5.99,0.49l35.44,0M-5.99,0.49l-7.28,0M29.45,0.49l7.28,0M-14.25,-0.49l7.87,0M-14.25,-0.49l0,0.12M-13.11,-0.37l0,0.75M-13.27,0.37l7.28,0M-13.27,0.37l0,0.12M37.72,-0.37l0,-0.12M36.57,0.37l0,-0.75M36.73,0.49l0,-0.12"></path> </symbol> <symbol id="top window - ZNC7-V6-F2" overflow="visible" class="a-glaz"> <path d="M-10.31,-0.49l46.3,0M35.98,0.49l-46.3,0M37.72,0.49l0,-0.98M37.72,-0.49l-1.73,0M35.98,-0.49l0,0.98M35.98,0.49l1.73,0M-10.31,-0.49l0,0.98M-10.31,0.49l-1.73,0M-12.05,0.49l0,-0.98M-12.05,-0.49l1.73,0M-5.87,-0.61l-0.09,0M29.34,-0.61l-1.26,0M27.74,-0.61l-0.34,0M27.05,-0.61l-1.47,0M22.48,-0.61l-3.31,0M18.74,-0.61l-3.03,0M15.27,-0.61l-0.88,0M13.95,-0.61l-1.77,0M10.34,-0.61l-1.71,0M6.87,-0.61l-3,0M3.45,-0.61l-2.87,0M0.17,-0.61l-1.53,0M-2.12,-0.61l-1.47,0M-3.93,-0.61l-0.34,0M-4.61,-0.61l-1.26,0M29.43,-0.61l-0.09,0M-5.97,-0.61l-7.26,0M29.43,-0.61l-0.75,0l-0.78,0l-0.8,0l-0.83,0l-0.85,0l-0.87,0l-0.89,0l-0.91,0l-0.93,0l-0.95,0l-0.96,0l-0.97,0l-0.98,0l-0.99,0l-1,0l-1.01,0l-1.02,0l-1.02,0l-1.02,0l-1.02,0l-1.02,0l-1.02,0l-1.01,0l-1.01,0l-1,0l-0.99,0l-0.98,0l-0.96,0l-0.95,0l-0.93,0l-0.92,0l-0.9,0l-0.88,0l-0.86,0l-0.83,0l-0.81,0l-0.79,0l-0.76,0l-0.24,0M36.69,-0.61l-7.26,0M-13.11,0.33l0,-0.08M-13.11,0.33l7.19,0M-5.92,0.33l0,-0.08M29.39,0.33l-35.31,0M29.39,0.33l0,-0.08M29.39,0.26l-35.31,0M29.39,0.26l7.19,0M-5.92,0.26l-7.19,0M36.57,0.33l-7.19,0M36.57,0.33l0,-0.08M37.72,-0.49l-7.87,0M36.73,0.37l-7.28,0M29.84,-0.49l0,0.12M-6.38,-0.49l36.22,0M-6.38,-0.49l0,0.12M-6.38,-0.37l36.22,0M-6.38,-0.37l-7.87,0M29.84,-0.37l7.87,0M29.39,-0.37l0,0.75M-5.92,-0.37l0,0.75M29.45,0.37l0,0.12M-5.99,0.37l35.44,0M-5.99,0.37l0,0.12M-5.99,0.49l35.44,0M-5.99,0.49l-7.28,0M29.45,0.49l7.28,0M-14.25,-0.49l7.87,0M-14.25,-0.49l0,0.12M-13.11,-0.37l0,0.75M-13.27,0.37l7.28,0M-13.27,0.37l0,0.12M37.72,-0.37l0,-0.12M36.57,0.37l0,-0.75M36.73,0.49l0,-0.12"></path> </symbol> <symbol id="top window - ZNC7-V7-F2" overflow="visible" class="a-glaz"> <path d="M-10.31,-0.49l46.3,0M35.98,0.49l-46.3,0M37.72,0.49l0,-0.98M37.72,-0.49l-1.73,0M35.98,-0.49l0,0.98M35.98,0.49l1.73,0M-10.31,-0.49l0,0.98M-10.31,0.49l-1.73,0M-12.05,0.49l0,-0.98M-12.05,-0.49l1.73,0M-5.87,-0.61l-0.09,0M29.34,-0.61l-1.26,0M27.74,-0.61l-0.34,0M27.05,-0.61l-1.47,0M22.48,-0.61l-3.31,0M18.74,-0.61l-3.03,0M15.27,-0.61l-0.88,0M13.95,-0.61l-1.77,0M10.4,-0.61l-1.76,0M6.87,-0.61l-3,0M3.45,-0.61l-2.87,0M0.17,-0.61l-1.53,0M-2.12,-0.61l-1.47,0M-3.93,-0.61l-0.32,0M-4.61,-0.61l-1.26,0M29.43,-0.61l-0.09,0M-5.97,-0.61l-7.26,0M29.43,-0.61l-0.75,0l-0.78,0l-0.8,0l-0.83,0l-0.85,0l-0.87,0l-0.89,0l-0.91,0l-0.93,0l-0.95,0l-0.96,0l-0.97,0l-0.98,0l-0.99,0l-1,0l-1.01,0l-1.02,0l-1.02,0l-1.02,0l-1.02,0l-1.02,0l-1.02,0l-1.01,0l-1.01,0l-1,0l-0.99,0l-0.98,0l-0.96,0l-0.95,0l-0.93,0l-0.92,0l-0.9,0l-0.88,0l-0.86,0l-0.83,0l-0.81,0l-0.79,0l-0.76,0l-0.24,0M36.69,-0.61l-7.26,0M-13.11,0.33l0,-0.08M-13.11,0.33l7.19,0M-5.92,0.33l0,-0.08M29.39,0.33l-35.31,0M29.39,0.33l0,-0.08M29.39,0.26l-35.31,0M29.39,0.26l7.19,0M-5.92,0.26l-7.19,0M36.57,0.33l-7.19,0M36.57,0.33l0,-0.08M37.72,-0.49l-7.87,0M36.73,0.37l-7.28,0M29.84,-0.49l0,0.12M-6.38,-0.49l36.22,0M-6.38,-0.49l0,0.12M-6.38,-0.37l36.22,0M-6.38,-0.37l-7.87,0M29.84,-0.37l7.87,0M29.39,-0.37l0,0.75M-5.92,-0.37l0,0.75M29.45,0.37l0,0.12M-5.99,0.37l35.44,0M-5.99,0.37l0,0.12M-5.99,0.49l35.44,0M-5.99,0.49l-7.28,0M29.45,0.49l7.28,0M-14.25,-0.49l7.87,0M-14.25,-0.49l0,0.12M-13.11,-0.37l0,0.75M-13.27,0.37l7.28,0M-13.27,0.37l0,0.12M37.72,-0.37l0,-0.12M36.57,0.37l0,-0.75M36.73,0.49l0,-0.12"></path> </symbol> <symbol id="top window - ZNC7-V8-F2" overflow="visible" class="a-glaz"> <path d="M-10.31,-0.49l46.3,0M35.98,0.49l-46.3,0M37.72,0.49l0,-0.98M37.72,-0.49l-1.73,0M35.98,-0.49l0,0.98M35.98,0.49l1.73,0M-10.31,-0.49l0,0.98M-10.31,0.49l-1.73,0M-12.05,0.49l0,-0.98M-12.05,-0.49l1.73,0M-5.87,-0.61l-0.09,0M29.34,-0.61l-1.26,0M27.74,-0.61l-0.34,0M27.05,-0.61l-1.47,0M22.48,-0.61l-3.31,0M18.74,-0.61l-3.03,0M15.27,-0.61l-0.88,0M13.95,-0.61l-1.77,0M10.4,-0.61l-1.76,0M6.87,-0.61l-3,0M3.45,-0.61l-2.87,0M0.17,-0.61l-1.5,0M-2.12,-0.61l-1.47,0M-3.93,-0.61l-0.34,0M-4.61,-0.61l-1.26,0M29.43,-0.61l-0.09,0M-5.97,-0.61l-7.26,0M29.43,-0.61l-0.75,0l-0.78,0l-0.8,0l-0.83,0l-0.85,0l-0.87,0l-0.89,0l-0.91,0l-0.93,0l-0.95,0l-0.96,0l-0.97,0l-0.98,0l-0.99,0l-1,0l-1.01,0l-1.02,0l-1.02,0l-1.02,0l-1.02,0l-1.02,0l-1.02,0l-1.01,0l-1.01,0l-1,0l-0.99,0l-0.98,0l-0.96,0l-0.95,0l-0.93,0l-0.92,0l-0.9,0l-0.88,0l-0.86,0l-0.83,0l-0.81,0l-0.79,0l-0.76,0l-0.24,0M36.69,-0.61l-7.26,0M-13.11,0.33l0,-0.08M-13.11,0.33l7.19,0M-5.92,0.33l0,-0.08M29.39,0.33l-35.31,0M29.39,0.33l0,-0.08M29.39,0.26l-35.31,0M29.39,0.26l7.19,0M-5.92,0.26l-7.19,0M36.57,0.33l-7.19,0M36.57,0.33l0,-0.08M37.72,-0.49l-7.87,0M36.73,0.37l-7.28,0M29.84,-0.49l0,0.12M-6.38,-0.49l36.22,0M-6.38,-0.49l0,0.12M-6.38,-0.37l36.22,0M-6.38,-0.37l-7.87,0M29.84,-0.37l7.87,0M29.39,-0.37l0,0.75M-5.92,-0.37l0,0.75M29.45,0.37l0,0.12M-5.99,0.37l35.44,0M-5.99,0.37l0,0.12M-5.99,0.49l35.44,0M-5.99,0.49l-7.28,0M29.45,0.49l7.28,0M-14.25,-0.49l7.87,0M-14.25,-0.49l0,0.12M-13.11,-0.37l0,0.75M-13.27,0.37l7.28,0M-13.27,0.37l0,0.12M37.72,-0.37l0,-0.12M36.57,0.37l0,-0.75M36.73,0.49l0,-0.12"></path> </symbol> <symbol id="top window - ZNC7-V9-F2" overflow="visible" class="a-glaz"> <path d="M-10.31,-0.49l46.3,0M35.98,0.49l-46.3,0M37.72,0.49l0,-0.98M37.72,-0.49l-1.73,0M35.98,-0.49l0,0.98M35.98,0.49l1.73,0M-10.31,-0.49l0,0.98M-10.31,0.49l-1.73,0M-12.05,0.49l0,-0.98M-12.05,-0.49l1.73,0M-5.87,-0.61l-0.09,0M29.34,-0.61l-1.26,0M27.74,-0.61l-0.34,0M27.05,-0.61l-1.47,0M22.48,-0.61l-3.31,0M18.74,-0.61l-3.03,0M15.27,-0.61l-0.88,0M13.95,-0.61l-1.77,0M10.4,-0.61l-1.76,0M6.87,-0.61l-3,0M3.45,-0.61l-2.87,0M0.17,-0.61l-1.53,0M-2.12,-0.61l-1.47,0M-3.93,-0.61l-0.34,0M-4.61,-0.61l-1.26,0M29.43,-0.61l-0.09,0M-5.97,-0.61l-7.26,0M29.43,-0.61l-0.75,0l-0.78,0l-0.8,0l-0.83,0l-0.85,0l-0.87,0l-0.89,0l-0.91,0l-0.93,0l-0.95,0l-0.96,0l-0.97,0l-0.98,0l-0.99,0l-1,0l-1.01,0l-1.02,0l-1.02,0l-1.02,0l-1.02,0l-1.02,0l-1.02,0l-1.01,0l-1.01,0l-1,0l-0.99,0l-0.98,0l-0.96,0l-0.95,0l-0.93,0l-0.92,0l-0.9,0l-0.88,0l-0.86,0l-0.83,0l-0.81,0l-0.79,0l-0.76,0l-0.24,0M36.69,-0.61l-7.26,0M-13.11,0.33l0,-0.08M-13.11,0.33l7.19,0M-5.92,0.33l0,-0.08M29.39,0.33l-35.31,0M29.39,0.33l0,-0.08M29.39,0.26l-35.31,0M29.39,0.26l7.19,0M-5.92,0.26l-7.19,0M36.57,0.33l-7.19,0M36.57,0.33l0,-0.08M37.72,-0.49l-7.87,0M36.73,0.37l-7.28,0M29.84,-0.49l0,0.12M-6.38,-0.49l36.22,0M-6.38,-0.49l0,0.12M-6.38,-0.37l36.22,0M-6.38,-0.37l-7.87,0M29.84,-0.37l7.87,0M29.39,-0.37l0,0.75M-5.92,-0.37l0,0.75M29.45,0.37l0,0.12M-5.99,0.37l35.44,0M-5.99,0.37l0,0.12M-5.99,0.49l35.44,0M-5.99,0.49l-7.28,0M29.45,0.49l7.28,0M-14.25,-0.49l7.87,0M-14.25,-0.49l0,0.12M-13.11,-0.37l0,0.75M-13.27,0.37l7.28,0M-13.27,0.37l0,0.12M37.72,-0.37l0,-0.12M36.57,0.37l0,-0.75M36.73,0.49l0,-0.12"></path> </symbol> <symbol id="top window - ZNC7-V10-F2" overflow="visible" class="a-glaz"> <path d="M-10.31,-0.49l46.3,0M35.98,0.49l-46.3,0M37.72,0.49l0,-0.98M37.72,-0.49l-1.73,0M35.98,-0.49l0,0.98M35.98,0.49l1.73,0M-10.31,-0.49l0,0.98M-10.31,0.49l-1.73,0M-12.05,0.49l0,-0.98M-12.05,-0.49l1.73,0M-5.87,-0.61l-0.09,0M29.34,-0.61l-1.26,0M27.74,-0.61l-0.34,0M27.05,-0.61l-1.47,0M22.48,-0.61l-3.31,0M18.74,-0.61l-3,0M15.27,-0.61l-0.88,0M13.95,-0.61l-1.77,0M10.4,-0.61l-1.76,0M6.87,-0.61l-3,0M3.45,-0.61l-2.87,0M0.17,-0.61l-1.53,0M-2.12,-0.61l-1.47,0M-3.93,-0.61l-0.34,0M-4.61,-0.61l-1.26,0M29.43,-0.61l-0.09,0M-5.97,-0.61l-7.26,0M29.43,-0.61l-0.75,0l-0.78,0l-0.8,0l-0.83,0l-0.85,0l-0.87,0l-0.89,0l-0.91,0l-0.93,0l-0.95,0l-0.96,0l-0.97,0l-0.98,0l-0.99,0l-1,0l-1.01,0l-1.02,0l-1.02,0l-1.02,0l-1.02,0l-1.02,0l-1.02,0l-1.01,0l-1.01,0l-1,0l-0.99,0l-0.98,0l-0.96,0l-0.95,0l-0.93,0l-0.92,0l-0.9,0l-0.88,0l-0.86,0l-0.83,0l-0.81,0l-0.79,0l-0.76,0l-0.24,0M36.69,-0.61l-7.26,0M-13.11,0.33l0,-0.08M-13.11,0.33l7.19,0M-5.92,0.33l0,-0.08M29.39,0.33l-35.31,0M29.39,0.33l0,-0.08M29.39,0.26l-35.31,0M29.39,0.26l7.19,0M-5.92,0.26l-7.19,0M36.57,0.33l-7.19,0M36.57,0.33l0,-0.08M37.72,-0.49l-7.87,0M36.73,0.37l-7.28,0M29.84,-0.49l0,0.12M-6.38,-0.49l36.22,0M-6.38,-0.49l0,0.12M-6.38,-0.37l36.22,0M-6.38,-0.37l-7.87,0M29.84,-0.37l7.87,0M29.39,-0.37l0,0.75M-5.92,-0.37l0,0.75M29.45,0.37l0,0.12M-5.99,0.37l35.44,0M-5.99,0.37l0,0.12M-5.99,0.49l35.44,0M-5.99,0.49l-7.28,0M29.45,0.49l7.28,0M-14.25,-0.49l7.87,0M-14.25,-0.49l0,0.12M-13.11,-0.37l0,0.75M-13.27,0.37l7.28,0M-13.27,0.37l0,0.12M37.72,-0.37l0,-0.12M36.57,0.37l0,-0.75M36.73,0.49l0,-0.12"></path> </symbol> <symbol id="top window - ZNC7-V11-F2" overflow="visible" class="a-glaz"> <path d="M-10.31,-0.49l46.3,0M35.98,0.49l-46.3,0M37.72,0.49l0,-0.98M37.72,-0.49l-1.73,0M35.98,-0.49l0,0.98M35.98,0.49l1.73,0M-10.31,-0.49l0,0.98M-10.31,0.49l-1.73,0M-12.05,0.49l0,-0.98M-12.05,-0.49l1.73,0M-5.87,-0.61l-0.09,0M29.34,-0.61l-1.26,0M27.7,-0.61l-0.31,0M27.05,-0.61l-1.47,0M22.48,-0.61l-3.31,0M18.74,-0.61l-3.03,0M15.27,-0.61l-0.88,0M13.95,-0.61l-1.77,0M10.4,-0.61l-1.76,0M6.84,-0.61l-2.97,0M3.45,-0.61l-2.87,0M0.17,-0.61l-1.53,0M-2.12,-0.61l-1.47,0M-3.93,-0.61l-0.34,0M-4.61,-0.61l-1.26,0M29.43,-0.61l-0.09,0M-5.97,-0.61l-7.26,0M29.43,-0.61l-0.75,0l-0.78,0l-0.8,0l-0.83,0l-0.85,0l-0.87,0l-0.89,0l-0.91,0l-0.93,0l-0.95,0l-0.96,0l-0.97,0l-0.98,0l-0.99,0l-1,0l-1.01,0l-1.02,0l-1.02,0l-1.02,0l-1.02,0l-1.02,0l-1.02,0l-1.01,0l-1.01,0l-1,0l-0.99,0l-0.98,0l-0.96,0l-0.95,0l-0.93,0l-0.92,0l-0.9,0l-0.88,0l-0.86,0l-0.83,0l-0.81,0l-0.79,0l-0.76,0l-0.24,0M36.69,-0.61l-7.26,0M-13.11,0.33l0,-0.08M-13.11,0.33l7.19,0M-5.92,0.33l0,-0.08M29.39,0.33l-35.31,0M29.39,0.33l0,-0.08M29.39,0.26l-35.31,0M29.39,0.26l7.19,0M-5.92,0.26l-7.19,0M36.57,0.33l-7.19,0M36.57,0.33l0,-0.08M37.72,-0.49l-7.87,0M36.73,0.37l-7.28,0M29.84,-0.49l0,0.12M-6.38,-0.49l36.22,0M-6.38,-0.49l0,0.12M-6.38,-0.37l36.22,0M-6.38,-0.37l-7.87,0M29.84,-0.37l7.87,0M29.39,-0.37l0,0.75M-5.92,-0.37l0,0.75M29.45,0.37l0,0.12M-5.99,0.37l35.44,0M-5.99,0.37l0,0.12M-5.99,0.49l35.44,0M-5.99,0.49l-7.28,0M29.45,0.49l7.28,0M-14.25,-0.49l7.87,0M-14.25,-0.49l0,0.12M-13.11,-0.37l0,0.75M-13.27,0.37l7.28,0M-13.27,0.37l0,0.12M37.72,-0.37l0,-0.12M36.57,0.37l0,-0.75M36.73,0.49l0,-0.12"></path> </symbol> <symbol id="top window - ZNC7-V12-F2" overflow="visible" class="a-glaz"> <path d="M-10.31,-0.49l46.3,0M35.98,0.49l-46.3,0M37.72,0.49l0,-0.98M37.72,-0.49l-1.73,0M35.98,-0.49l0,0.98M35.98,0.49l1.73,0M-10.31,-0.49l0,0.98M-10.31,0.49l-1.73,0M-12.05,0.49l0,-0.98M-12.05,-0.49l1.73,0M-5.87,-0.61l-0.09,0M29.34,-0.61l-1.26,0M27.74,-0.61l-0.34,0M27.05,-0.61l-1.47,0M22.48,-0.61l-3.31,0M18.74,-0.61l-3.03,0M15.27,-0.61l-0.88,0M13.95,-0.61l-1.77,0M10.4,-0.61l-1.76,0M6.87,-0.61l-3,0M3.45,-0.61l-2.82,0M0.17,-0.61l-1.53,0M-2.12,-0.61l-1.47,0M-3.93,-0.61l-0.34,0M-4.61,-0.61l-1.26,0M29.43,-0.61l-0.09,0M-5.97,-0.61l-7.26,0M29.43,-0.61l-0.75,0l-0.78,0l-0.8,0l-0.83,0l-0.85,0l-0.87,0l-0.89,0l-0.91,0l-0.93,0l-0.95,0l-0.96,0l-0.97,0l-0.98,0l-0.99,0l-1,0l-1.01,0l-1.02,0l-1.02,0l-1.02,0l-1.02,0l-1.02,0l-1.02,0l-1.01,0l-1.01,0l-1,0l-0.99,0l-0.98,0l-0.96,0l-0.95,0l-0.93,0l-0.92,0l-0.9,0l-0.88,0l-0.86,0l-0.83,0l-0.81,0l-0.79,0l-0.76,0l-0.24,0M36.69,-0.61l-7.26,0M-13.11,0.33l0,-0.08M-13.11,0.33l7.19,0M-5.92,0.33l0,-0.08M29.39,0.33l-35.31,0M29.39,0.33l0,-0.08M29.39,0.26l-35.31,0M29.39,0.26l7.19,0M-5.92,0.26l-7.19,0M36.57,0.33l-7.19,0M36.57,0.33l0,-0.08M37.72,-0.49l-7.87,0M36.73,0.37l-7.28,0M29.84,-0.49l0,0.12M-6.38,-0.49l36.22,0M-6.38,-0.49l0,0.12M-6.38,-0.37l36.22,0M-6.38,-0.37l-7.87,0M29.84,-0.37l7.87,0M29.39,-0.37l0,0.75M-5.92,-0.37l0,0.75M29.45,0.37l0,0.12M-5.99,0.37l35.44,0M-5.99,0.37l0,0.12M-5.99,0.49l35.44,0M-5.99,0.49l-7.28,0M29.45,0.49l7.28,0M-14.25,-0.49l7.87,0M-14.25,-0.49l0,0.12M-13.11,-0.37l0,0.75M-13.27,0.37l7.28,0M-13.27,0.37l0,0.12M37.72,-0.37l0,-0.12M36.57,0.37l0,-0.75M36.73,0.49l0,-0.12"></path> </symbol> <symbol id="window at stairs - ZNC7-1359213-F2" overflow="visible" class="a-glaz"> <path d="M-10.31,-0.49l46.3,0M35.98,0.49l-46.3,0M37.72,0.49l0,-0.98M37.72,-0.49l-1.73,0M35.98,-0.49l0,0.98M35.98,0.49l1.73,0M-10.31,-0.49l0,0.98M-10.31,0.49l-1.73,0M-12.05,0.49l0,-0.98M-12.05,-0.49l1.73,0M-6.61,-0.61l-0.14,0M28.5,-0.61l-1.22,0M26.95,-0.61l-0.34,0M26.26,-0.61l-1.47,0M21.69,-0.61l-3.31,0M17.95,-0.61l-3.03,0M14.48,-0.61l-0.88,0M13.16,-0.61l-1.77,0M9.61,-0.61l-1.76,0M6.09,-0.61l-3,0M2.66,-0.61l-2.87,0M-0.61,-0.61l-1.53,0M-2.91,-0.61l-1.47,0M-4.72,-0.61l-0.34,0M-5.4,-0.61l-1.22,0M28.65,-0.61l-0.14,0M-6.76,-0.61l-8.05,0M28.65,-0.61l-0.75,0l-0.78,0l-0.8,0l-0.83,0l-0.85,0l-0.87,0l-0.89,0l-0.91,0l-0.93,0l-0.95,0l-0.96,0l-0.97,0l-0.98,0l-0.99,0l-1,0l-1.01,0l-1.02,0l-1.02,0l-1.02,0l-1.02,0l-1.02,0l-1.02,0l-1.01,0l-1.01,0l-1,0l-0.99,0l-0.98,0l-0.96,0l-0.95,0l-0.93,0l-0.92,0l-0.9,0l-0.88,0l-0.86,0l-0.83,0l-0.81,0l-0.79,0l-0.76,0l-0.24,0M36.69,-0.61l-8.05,0M-14.69,0.33l0,-0.08M-14.69,0.33l7.98,0M-6.71,0.33l0,-0.08M28.6,0.33l-35.31,0M28.6,0.33l0,-0.08M28.6,0.26l-35.31,0M28.6,0.26l7.98,0M-6.71,0.26l-7.98,0M25.92,-0.61l-0.22,0M19.73,-0.61l-0.24,0M16.27,-0.61l-0.17,0M12.84,-0.61l-0.22,0M9.27,-0.61l-0.22,0M5.79,-0.61l-0.17,0M2.36,-0.61l-0.2,0M-0.87,-0.61l-0.06,0M-3.81,-0.61l-0.22,0M36.57,0.33l-7.98,0M36.57,0.33l0,-0.08M37.72,-0.49l-8.66,0M36.73,0.37l-8.07,0M29.06,-0.49l0,0.12M-7.17,-0.49l36.22,0M-7.17,-0.49l0,0.12M-7.17,-0.37l36.22,0M-7.17,-0.37l-8.66,0M29.06,-0.37l8.66,0M28.6,-0.37l0,0.75M-6.71,-0.37l0,0.75M28.66,0.37l0,0.12M-6.77,0.37l35.44,0M-6.77,0.37l0,0.12M-6.77,0.49l35.44,0M-6.77,0.49l-8.07,0M28.66,0.49l8.07,0M-15.83,-0.49l8.66,0M-15.83,-0.49l0,0.12M-14.69,-0.37l0,0.75M-14.84,0.37l8.07,0M-14.84,0.37l0,0.12M37.72,-0.37l0,-0.12M36.57,0.37l0,-0.75M36.73,0.49l0,-0.12"></path> </symbol> <symbol id="window at stairs - ZNC7-V13-F2" overflow="visible" class="a-glaz"> <path d="M-10.31,-0.49l46.3,0M35.98,0.49l-46.3,0M37.72,0.49l0,-0.98M37.72,-0.49l-1.73,0M35.98,-0.49l0,0.98M35.98,0.49l1.73,0M-10.31,-0.49l0,0.98M-10.31,0.49l-1.73,0M-12.05,0.49l0,-0.98M-12.05,-0.49l1.73,0M-6.61,-0.61l-0.14,0M28.5,-0.61l-1.22,0M26.95,-0.61l-0.34,0M26.26,-0.61l-1.47,0M21.69,-0.61l-3.31,0M17.95,-0.61l-3.03,0M14.48,-0.61l-0.88,0M13.16,-0.61l-1.73,0M9.61,-0.61l-1.76,0M6.09,-0.61l-3,0M2.66,-0.61l-2.87,0M-0.61,-0.61l-1.53,0M-2.91,-0.61l-1.47,0M-4.72,-0.61l-0.34,0M-5.4,-0.61l-1.22,0M28.65,-0.61l-0.14,0M-6.76,-0.61l-8.05,0M28.65,-0.61l-0.75,0l-0.78,0l-0.8,0l-0.83,0l-0.85,0l-0.87,0l-0.89,0l-0.91,0l-0.93,0l-0.95,0l-0.96,0l-0.97,0l-0.98,0l-0.99,0l-1,0l-1.01,0l-1.02,0l-1.02,0l-1.02,0l-1.02,0l-1.02,0l-1.02,0l-1.01,0l-1.01,0l-1,0l-0.99,0l-0.98,0l-0.96,0l-0.95,0l-0.93,0l-0.92,0l-0.9,0l-0.88,0l-0.86,0l-0.83,0l-0.81,0l-0.79,0l-0.76,0l-0.24,0M36.69,-0.61l-8.05,0M-14.69,0.33l0,-0.08M-14.69,0.33l7.98,0M-6.71,0.33l0,-0.08M28.6,0.33l-35.31,0M28.6,0.33l0,-0.08M28.6,0.26l-35.31,0M28.6,0.26l7.98,0M-6.71,0.26l-7.98,0M25.92,-0.61l-0.22,0M19.77,-0.61l-0.28,0M16.27,-0.61l-0.17,0M12.84,-0.61l-0.22,0M9.27,-0.61l-0.22,0M5.79,-0.61l-0.17,0M2.4,-0.61l-0.24,0M-0.87,-0.61l-0.06,0M-3.81,-0.61l-0.22,0M36.57,0.33l-7.98,0M36.57,0.33l0,-0.08M37.72,-0.49l-8.66,0M36.73,0.37l-8.07,0M29.06,-0.49l0,0.12M-7.17,-0.49l36.22,0M-7.17,-0.49l0,0.12M-7.17,-0.37l36.22,0M-7.17,-0.37l-8.66,0M29.06,-0.37l8.66,0M28.6,-0.37l0,0.75M-6.71,-0.37l0,0.75M28.66,0.37l0,0.12M-6.77,0.37l35.44,0M-6.77,0.37l0,0.12M-6.77,0.49l35.44,0M-6.77,0.49l-8.07,0M28.66,0.49l8.07,0M-15.83,-0.49l8.66,0M-15.83,-0.49l0,0.12M-14.69,-0.37l0,0.75M-14.84,0.37l8.07,0M-14.84,0.37l0,0.12M37.72,-0.37l0,-0.12M36.57,0.37l0,-0.75M36.73,0.49l0,-0.12"></path> </symbol> <symbol id="window at stairs - ZNC7-V17-F2" overflow="visible" class="a-glaz"> <path d="M-10.31,-0.49l46.3,0M35.98,0.49l-46.3,0M37.72,0.49l0,-0.98M37.72,-0.49l-1.73,0M35.98,-0.49l0,0.98M35.98,0.49l1.73,0M-10.31,-0.49l0,0.98M-10.31,0.49l-1.73,0M-12.05,0.49l0,-0.98M-12.05,-0.49l1.73,0M-6.61,-0.61l-0.14,0M28.5,-0.61l-1.22,0M26.95,-0.61l-0.34,0M26.26,-0.61l-1.47,0M21.69,-0.61l-3.31,0M17.95,-0.61l-3.03,0M14.48,-0.61l-0.88,0M13.16,-0.61l-1.77,0M9.61,-0.61l-1.76,0M6.09,-0.61l-3,0M2.66,-0.61l-2.87,0M-0.61,-0.61l-1.53,0M-2.91,-0.61l-1.47,0M-4.72,-0.61l-0.34,0M-5.4,-0.61l-1.22,0M28.65,-0.61l-0.14,0M-6.76,-0.61l-8.05,0M28.65,-0.61l-0.75,0l-0.78,0l-0.8,0l-0.83,0l-0.85,0l-0.87,0l-0.89,0l-0.91,0l-0.93,0l-0.95,0l-0.96,0l-0.97,0l-0.98,0l-0.99,0l-1,0l-1.01,0l-1.02,0l-1.02,0l-1.02,0l-1.02,0l-1.02,0l-1.02,0l-1.01,0l-1.01,0l-1,0l-0.99,0l-0.98,0l-0.96,0l-0.95,0l-0.93,0l-0.92,0l-0.9,0l-0.88,0l-0.86,0l-0.83,0l-0.81,0l-0.79,0l-0.76,0l-0.24,0M36.69,-0.61l-8.05,0M-14.69,0.33l0,-0.08M-14.69,0.33l7.98,0M-6.71,0.33l0,-0.08M28.6,0.33l-35.31,0M28.6,0.33l0,-0.08M28.6,0.26l-35.31,0M28.6,0.26l7.98,0M-6.71,0.26l-7.98,0M25.91,-0.61l-0.21,0M19.73,-0.61l-0.24,0M16.27,-0.61l-0.17,0M12.84,-0.61l-0.22,0M9.23,-0.61l-0.18,0M5.79,-0.61l-0.17,0M2.4,-0.61l-0.24,0M-0.87,-0.61l-0.06,0M-3.81,-0.61l-0.22,0M36.57,0.33l-7.98,0M36.57,0.33l0,-0.08M37.72,-0.49l-8.66,0M36.73,0.37l-8.07,0M29.06,-0.49l0,0.12M-7.17,-0.49l36.22,0M-7.17,-0.49l0,0.12M-7.17,-0.37l36.22,0M-7.17,-0.37l-8.66,0M29.06,-0.37l8.66,0M28.6,-0.37l0,0.75M-6.71,-0.37l0,0.75M28.66,0.37l0,0.12M-6.77,0.37l35.44,0M-6.77,0.37l0,0.12M-6.77,0.49l35.44,0M-6.77,0.49l-8.07,0M28.66,0.49l8.07,0M-15.83,-0.49l8.66,0M-15.83,-0.49l0,0.12M-14.69,-0.37l0,0.75M-14.84,0.37l8.07,0M-14.84,0.37l0,0.12M37.72,-0.37l0,-0.12M36.57,0.37l0,-0.75M36.73,0.49l0,-0.12"></path> </symbol> <symbol id="window at stairs - ZNC7-V18-F2" overflow="visible" class="a-glaz"> <path d="M-10.31,-0.49l46.3,0M35.98,0.49l-46.3,0M37.72,0.49l0,-0.98M37.72,-0.49l-1.73,0M35.98,-0.49l0,0.98M35.98,0.49l1.73,0M-10.31,-0.49l0,0.98M-10.31,0.49l-1.73,0M-12.05,0.49l0,-0.98M-12.05,-0.49l1.73,0M-6.61,-0.61l-0.14,0M28.5,-0.61l-1.22,0M26.95,-0.61l-0.34,0M26.26,-0.61l-1.47,0M21.69,-0.61l-3.31,0M17.95,-0.61l-3.03,0M14.48,-0.61l-0.88,0M13.16,-0.61l-1.77,0M9.61,-0.61l-1.76,0M6.09,-0.61l-3,0M2.66,-0.61l-2.87,0M-0.61,-0.61l-1.53,0M-2.91,-0.61l-1.47,0M-4.72,-0.61l-0.34,0M-5.4,-0.61l-1.22,0M28.65,-0.61l-0.14,0M-6.76,-0.61l-8.05,0M28.65,-0.61l-0.75,0l-0.78,0l-0.8,0l-0.83,0l-0.85,0l-0.87,0l-0.89,0l-0.91,0l-0.93,0l-0.95,0l-0.96,0l-0.97,0l-0.98,0l-0.99,0l-1,0l-1.01,0l-1.02,0l-1.02,0l-1.02,0l-1.02,0l-1.02,0l-1.02,0l-1.01,0l-1.01,0l-1,0l-0.99,0l-0.98,0l-0.96,0l-0.95,0l-0.93,0l-0.92,0l-0.9,0l-0.88,0l-0.86,0l-0.83,0l-0.81,0l-0.79,0l-0.76,0l-0.24,0M36.69,-0.61l-8.05,0M-14.69,0.33l0,-0.08M-14.69,0.33l7.98,0M-6.71,0.33l0,-0.08M28.6,0.33l-35.31,0M28.6,0.33l0,-0.08M28.6,0.26l-35.31,0M28.6,0.26l7.98,0M-6.71,0.26l-7.98,0M25.92,-0.61l-0.22,0M19.73,-0.61l-0.24,0M16.27,-0.61l-0.17,0M12.84,-0.61l-0.22,0M9.27,-0.61l-0.22,0M5.79,-0.61l-0.17,0M2.4,-0.61l-0.24,0M-0.87,-0.61l-0.06,0M-3.79,-0.61l-0.24,0M36.57,0.33l-7.98,0M36.57,0.33l0,-0.08M37.72,-0.49l-8.66,0M36.73,0.37l-8.07,0M29.06,-0.49l0,0.12M-7.17,-0.49l36.22,0M-7.17,-0.49l0,0.12M-7.17,-0.37l36.22,0M-7.17,-0.37l-8.66,0M29.06,-0.37l8.66,0M28.6,-0.37l0,0.75M-6.71,-0.37l0,0.75M28.66,0.37l0,0.12M-6.77,0.37l35.44,0M-6.77,0.37l0,0.12M-6.77,0.49l35.44,0M-6.77,0.49l-8.07,0M28.66,0.49l8.07,0M-15.83,-0.49l8.66,0M-15.83,-0.49l0,0.12M-14.69,-0.37l0,0.75M-14.84,0.37l8.07,0M-14.84,0.37l0,0.12M37.72,-0.37l0,-0.12M36.57,0.37l0,-0.75M36.73,0.49l0,-0.12"></path> </symbol> <symbol id="Single Timber door 813mm - 900w X 1300h-1350640-F2" overflow="visible" class="a-door"> <g class="cnc-0"> <path d="M-14.39,1.77l0,-0.08l0.17,-0.07l0.07,-0.17l0.08,0l0,-1.46l-0.59,0l0,-0.12l0.28,0l0,-1.65l-1.85,0l0,1.54l0.39,0l0,0.24l-0.39,0l0,1.77l1.85,0M19.04,1.77l0,-1.77l-0.39,0l0,-0.24l0.39,0l0,-1.54l-1.85,0l0,1.65l0.28,0l0,0.12l-0.59,0l0,1.46l0.08,0l0.07,0.17l0.17,0.07l0,0.08l1.85,0"></path> </g> <path d="M-14.19,-31.5a31.38,31.38 0 0,1 31.38,31.38M-12.42,-31.5l-1.77,0M-14.19,-31.5l0,31.5M-14.19,0l1.77,0M-12.42,0l0,-31.5M-14.39,1.69l0,0.08M-14.15,1.46a0.24,0.24 0 0,1 -0.24,0.24M-14.07,1.46l-0.08,0M-14.07,0l0,1.46M-14.67,0l0.59,0M-14.67,-0.12l0,0.12M-14.39,-0.12l-0.28,0M-14.39,-1.77l0,1.65M-16.24,-1.77l1.85,0M-15.85,-0.24l-0.39,0M-15.85,0l0,-0.24M-16.24,0l0.39,0M-14.39,1.77l-1.85,0M18.64,0l0.39,0M18.64,-0.24l0,0.24M19.04,-0.24l-0.39,0M17.19,-1.77l1.85,0M17.19,-0.12l0,-1.65M17.46,-0.12l-0.28,0M17.46,0l0,-0.12M16.87,0l0.59,0M16.87,1.46l0,-1.46M16.95,1.46l-0.08,0M17.19,1.7a0.24,0.24 0 0,1 -0.24,-0.24M17.19,1.77l0,-0.08M19.04,1.77l-1.85,0"></path> </symbol> <symbol id="Single Timber door 813mm - 900w X 1300h-1350850-F2" overflow="visible" class="a-door"> <path d="M16.75,5.33a31.38,31.38 0 0,1 -30.94,26.17M-12.42,31.5l-1.77,0M-14.19,31.5l0,-26.18M-12.42,5.31l0,26.18"></path> </symbol> <symbol id="Single Timber door 813mm 130 wall - 813w X 2032h-1360407-F2" overflow="visible" class="a-door"> <g class="cnc-0"> <path d="M-15.55,0.43l0,1.34l1.85,0l0,-0.08l0.17,-0.07l0.07,-0.17l0.08,0l0,-1.46l-0.59,0l0,-0.12l0.28,0l0,-1.65l-1.85,0l0,1.54l0.39,0l0,0.24l-0.39,0l0,0.43M16.18,0l0,1.46l0.08,0l0.07,0.17l0.17,0.07l0,0.08l1.85,0l0,-1.77l-0.39,0l0,-0.24l0.39,0l0,-1.54l-1.85,0l0,1.65l0.28,0l0,0.12l-0.59,0"></path> </g> <path d="M-13.5,-30.12a30,30 0 0,1 30,30M-11.73,-29.53l-1.77,0M-13.5,-29.53l0,29.53M-13.5,0l1.77,0M-11.73,0l0,-29.53M-13.7,1.69l0,0.08M-13.46,1.46a0.24,0.24 0 0,1 -0.24,0.24M-13.39,1.46l-0.08,0M-13.39,0l0,1.46M-13.98,0l0.59,0M-13.98,-0.12l0,0.12M-13.7,-0.12l-0.28,0M-13.7,-1.77l0,1.65M-15.55,-1.77l1.85,0M-15.16,-0.24l-0.39,0M-15.16,0l0,-0.24M-15.55,0l0.39,0M-13.7,1.77l-1.85,0M17.95,0l0.39,0M17.95,-0.24l0,0.24M18.35,-0.24l-0.39,0M16.5,-1.77l1.85,0M16.5,-0.12l0,-1.65M16.77,-0.12l-0.28,0M16.77,0l0,-0.12M16.18,0l0.59,0M16.18,1.46l0,-1.46M16.26,1.46l-0.08,0M16.5,1.7a0.24,0.24 0 0,1 -0.24,-0.24M16.5,1.77l0,-0.08M18.35,1.77l-1.85,0"></path> </symbol> <symbol id="Single Timber door 813mm 130 wall - 813w X 2032h-V14-F2" overflow="visible" class="a-door"> <g class="cnc-0"> <path d="M-15.55,-0.24l0.08,0l0,-1.24l1.73,0l0.04,-0.3l-1.85,0l0,0.3l0,1.24M-15.55,0l0,0.43l0.08,0l0,-0.43l-0.08,0M-15.55,1.48l0,0.3l1.85,0l0,-0.08l0.17,-0.07l0.07,-0.17l0.08,0l0,-1.46l-0.35,0l0,1.48l-1.73,0l0,-0.73l-0.08,0l0,0.73M16.18,1.46l0.08,0l0.07,0.17l0.17,0.07l0,0.08l1.85,0l0,-1.77l-0.39,0l0,-0.24l0.39,0l-0.01,-1.54l-1.84,0l0,1.65l0.28,0l0,0.12l-0.59,0l0,1.46"></path> </g> <path d="M-13.5,-30.12a30,30 0 0,1 30,30M-11.73,-29.53l-1.77,0M-13.5,-29.53l0,29.53M-13.5,0l1.77,0M-11.73,0l0,-29.53M-13.7,1.69l0,0.08M-13.46,1.46a0.24,0.24 0 0,1 -0.24,0.24M-13.39,1.46l-0.08,0M-13.39,0l0,1.46M-13.74,0l0.35,0M-13.7,-1.77l0,1.65M-15.55,-1.77l1.85,0M-15.47,-0.24l-0.08,0M-15.55,0l0.08,0M-13.7,1.77l-1.85,0M17.95,0l0.39,0M17.95,-0.24l0,0.24M18.35,-0.24l-0.39,0M16.5,-1.77l1.85,0M16.5,-0.12l0,-1.65M16.77,-0.12l-0.28,0M16.77,0l0,-0.12M16.18,0l0.59,0M16.18,1.46l0,-1.46M16.26,1.46l-0.08,0M16.5,1.7a0.24,0.24 0 0,1 -0.24,-0.24M16.5,1.77l0,-0.08M18.35,1.77l-1.85,0"></path> </symbol> <symbol id="Single Timber door 813mm 130 wall - 813w X 2032h-1360634-F2" overflow="visible" class="a-door"> <g class="cnc-0"> <path d="M18.35,1.77l0,-1.54l-0.39,0l0,-0.24l0.39,0l0,-1.77l-1.85,0l0,0.08l-0.17,0.07l-0.07,0.17l-0.08,0l0,1.46l0.59,0l0,0.12l-0.28,0l0,1.65l1.85,0M-13.39,0l0,-1.46l-0.08,0l-0.07,-0.17l-0.17,-0.07l0,-0.08l-1.85,0l0,1.02l1.02,0.02l0,0.3l-1.02,0l0,0.43l0.39,0l0,0.24l-0.39,0l0,1.54l1.85,0l0,-1.65l-0.28,0l0,-0.12l0.59,0"></path> </g> <path d="M16.5,0.12a30,30 0 0,1 -30,30M-11.73,29.53l-1.77,0M-13.5,29.53l0,-29.53M-13.5,0l1.77,0M-11.73,0l0,29.53M-13.7,-1.77l-1.85,0M-15.55,0l0.39,0M-15.16,0l0,0.24M-15.16,0.24l-0.39,0M-15.55,1.77l1.85,0M-13.7,1.77l0,-1.65M-13.7,0.12l-0.28,0M-13.98,0.12l0,-0.12M-13.98,0l0.59,0M-13.39,0l0,-1.46M-13.39,-1.46l-0.08,0M-13.7,-1.7a0.24,0.24 0 0,1 0.24,0.24M-13.7,-1.69l0,-0.08M18.35,-1.77l-1.85,0M16.5,-1.77l0,0.08M16.26,-1.46a0.24,0.24 0 0,1 0.24,-0.24M16.26,-1.46l-0.08,0M16.18,-1.46l0,1.46M16.18,0l0.59,0M16.77,0l0,0.12M16.77,0.12l-0.28,0M16.5,0.12l0,1.65M16.5,1.77l1.85,0M18.35,0.24l-0.39,0M17.95,0.24l0,-0.24M17.95,0l0.39,0"></path> </symbol> <symbol id="Swartland Winsters small and big door - 1612w X 2032h-1367367-F2" overflow="visible" class="a-door"> <g class="cnc-0"> <path d="M-14.11,1.77l0,-1.65l-0.28,0l0,-0.12l0.59,0l0,-1.46l-0.08,0l-0.07,-0.17l-0.17,-0.07l0,-0.08l-1.85,0l0,1.77l0.39,0l0,0.24l-0.39,0l0,1.54l1.85,0M34.43,1.77l0,-1.54l-0.39,0l0,-0.24l0.39,0l0,-1.77l-1.85,0l0,0.08l-0.17,0.07l-0.07,0.17l-0.08,0l0,1.46l0.59,0l0,0.12l-0.28,0l0,1.65l1.85,0"></path> </g> <path d="M30.49,31.83l1.77,0M32.26,31.83l0,-31.83M32.26,0l-1.77,0M-12.34,16.46l-1.77,0M-14.11,16.46l0,-16.46M-14.11,0l1.77,0M32.26,31.84a30.87,30.87 0 0,1 -30.87,-30.89M1.4,0.94a15.51,15.51 0 0,1 -15.51,15.51M34.43,2.26l-50.39,0M-15.96,-2.26l50.39,0M30.49,0l0,31.83M-12.34,0l0,16.46M-15.96,0l0.39,0M-15.57,0l0,0.24M-15.57,0.24l-0.39,0M-15.96,1.77l1.85,0M-14.11,1.77l0,-1.65M-14.11,0.12l-0.28,0M-14.39,0.12l0,-0.12M-14.39,0l0.59,0M-13.8,0l0,-1.46M-13.8,-1.46l-0.08,0M-14.11,-1.7a0.24,0.24 0 0,1 0.24,0.24M-14.11,-1.69l0,-0.08M-14.11,-1.77l-1.85,0M34.43,0.24l-0.39,0M34.04,0.24l0,-0.24M34.04,0l0.39,0M34.43,-1.77l-1.85,0M32.58,-1.77l0,0.08M32.34,-1.46a0.24,0.24 0 0,1 0.24,-0.24M32.34,-1.46l-0.08,0M32.26,-1.46l0,1.46M32.26,0l0.59,0M32.85,0l0,0.12M32.85,0.12l-0.28,0M32.58,0.12l0,1.65M32.58,1.77l1.85,0"></path> </symbol> <symbol id="Swartland Winsters small and big door - 1612w X 2032h-1367366-F2" overflow="visible" class="a-door"> <g class="cnc-0"> <path d="M-15.96,-1.77l0,1.77l0.39,0l0,0.24l-0.39,0l0,1.54l1.85,0l0,-1.65l-0.28,0l0,-0.12l0.59,0l0,-1.46l-0.08,0l-0.07,-0.17l-0.17,-0.07l0,-0.08l-0.83,0l-1.02,0M34.43,-1.77l-1.85,0l0,0.08l-0.17,0.07l-0.07,0.17l-0.08,0l0,1.46l0.59,0l0,0.12l-0.28,0l0,1.65l1.85,0l0,-1.54l-0.39,0l0,-0.24l0.39,0l0,-1.77"></path> </g> <path d="M30.49,31.83l1.77,0M32.26,31.83l0,-31.83M32.26,0l-1.77,0M-12.34,16.46l-1.77,0M-14.11,16.46l0,-16.46M-14.11,0l1.77,0M32.26,31.84a30.87,30.87 0 0,1 -30.87,-30.89M1.4,0.94a15.51,15.51 0 0,1 -15.51,15.51M34.43,2.95l-50.39,0M-15.96,-2.95l50.39,0M30.49,0l0,31.83M-12.34,0l0,16.46M34.43,0.24l-0.39,0M34.04,0.24l0,-0.24M34.04,0l0.39,0M34.43,-1.77l-1.85,0M32.58,-1.77l0,0.08M32.34,-1.46a0.24,0.24 0 0,1 0.24,-0.24M32.34,-1.46l-0.08,0M32.26,-1.46l0,1.46M32.26,0l0.59,0M32.85,0l0,0.12M32.85,0.12l-0.28,0M32.58,0.12l0,1.65M32.58,1.77l1.85,0M-15.96,0l0.39,0M-15.57,0l0,0.24M-15.57,0.24l-0.39,0M-15.96,1.77l1.85,0M-14.11,1.77l0,-1.65M-14.11,0.12l-0.28,0M-14.39,0.12l0,-0.12M-14.39,0l0.59,0M-13.8,0l0,-1.46M-13.8,-1.46l-0.08,0M-14.11,-1.7a0.24,0.24 0 0,1 0.24,0.24M-14.11,-1.69l0,-0.08M-14.11,-1.77l-1.85,0"></path> </symbol> <symbol id="Swartland Winsters panel double - 1612w X 2032h-1330428-F2" overflow="visible" class="a-door"> <g class="cnc-0"> <path d="M-31.63,0.24l0,1.54l1.85,0l0,-1.65l-0.28,0l0,-0.12l0.59,0l0,-1.46l-0.08,0l-0.07,-0.17l-0.17,-0.07l0,-0.08l-1.85,0l0,1.77l0.39,0l0,0.24l-0.39,0M32.26,0l0.59,0l0,0.12l-0.28,0l0,1.65l1.85,0l0,-1.54l-0.39,0l0,-0.24l0.39,0l0,-1.77l-1.85,0l0,0.08l-0.17,0.07l-0.07,0.17l-0.08,0l0,1.46"></path> </g> <path d="M30.49,32.01l1.77,0M32.26,32.01l0,-32.01M32.26,0l-1.77,0M30.61,32.01a30.63,30.63 0 0,1 -29.22,-32.01M1.4,0a30.63,30.63 0 0,1 -29.22,32.01M-27.81,32.01l-1.77,0M-29.59,32.01l0,-32.01M-29.59,0l1.77,0M34.43,2.76l-66.06,0M-31.63,-2.76l66.06,0M30.49,0l0,32.01M-27.81,0l0,32.01M-29.78,-1.77l-1.85,0M-31.63,0l0.39,0M-31.24,0l0,0.24M-31.24,0.24l-0.39,0M-31.63,1.77l1.85,0M-29.78,1.77l0,-1.65M-29.78,0.12l-0.28,0M-30.06,0.12l0,-0.12M-30.06,0l0.59,0M-29.47,0l0,-1.46M-29.47,-1.46l-0.08,0M-29.78,-1.7a0.24,0.24 0 0,1 0.24,0.24M-29.78,-1.69l0,-0.08M34.43,-1.77l-1.85,0M32.58,-1.77l0,0.08M32.34,-1.46a0.24,0.24 0 0,1 0.24,-0.24M32.34,-1.46l-0.08,0M32.26,-1.46l0,1.46M32.26,0l0.59,0M32.85,0l0,0.12M32.85,0.12l-0.28,0M32.58,0.12l0,1.65M32.58,1.77l1.85,0M34.43,0.24l-0.39,0M34.04,0.24l0,-0.24M34.04,0l0.39,0"></path> </symbol> <symbol id="Swartland Winsters panel double - 1612w X 2032h-V15-F2" overflow="visible" class="a-door"> <g class="cnc-0"> <path d="M34.43,0l0,-1.77l-1.85,0l0,0.08l-0.17,0.07l-0.07,0.17l-0.08,0l0,1.46l0.59,0l0,0.12l-0.28,0l0,1.65l1.85,0l0,-1.54l-0.39,0l0,-0.24l0.39,0M-29.47,-1.46l-0.08,0l-0.07,-0.17l-0.17,-0.07l0,-0.08l-1.85,0l0,1.77l0.39,0l0,0.24l-0.39,0l0,1.54l1.85,0l0,-1.65l-0.28,0l0,-0.12l0.59,0l0,-1.46"></path> </g> <path d="M30.49,32.01l1.77,0M32.26,32.01l0,-32.01M32.26,0l-1.77,0M30.61,32.01a30.63,30.63 0 0,1 -29.22,-32.01M1.4,0a30.63,30.63 0 0,1 -29.22,32.01M-27.81,32.01l-1.77,0M-29.59,32.01l0,-32.01M-29.59,0l1.77,0M34.43,2.76l-66.06,0M-31.63,-2.76l66.06,0M30.49,0l0,32.01M-27.81,0l0,32.01M-29.78,-1.77l-1.85,0M-31.63,0l0.39,0M-31.24,0l0,0.24M-31.24,0.24l-0.39,0M-31.63,1.77l1.85,0M-29.78,1.77l0,-1.65M-29.78,0.12l-0.28,0M-30.06,0.12l0,-0.12M-30.06,0l0.59,0M-29.47,0l0,-1.46M-29.47,-1.46l-0.08,0M-29.78,-1.7a0.24,0.24 0 0,1 0.24,0.24M-29.78,-1.69l0,-0.08M34.43,-1.77l-1.85,0M32.58,-1.77l0,0.08M32.34,-1.46a0.24,0.24 0 0,1 0.24,-0.24M32.34,-1.46l-0.08,0M32.26,-1.46l0,1.46M32.26,0l0.59,0M32.85,0l0,0.12M32.85,0.12l-0.28,0M32.58,0.12l0,1.65M32.58,1.77l1.85,0M34.43,0.24l-0.39,0M34.04,0.24l0,-0.24M34.04,0l0.39,0"></path> </symbol> <symbol id="Single Timber door 813mm 130 wall - 813w X 2032h-1327458-F2" overflow="visible" class="a-door"> <g class="cnc-0"> <path d="M-13.7,1.77l0,-0.08l0.17,-0.07l0.07,-0.17l0.08,0l0,-1.46l-0.59,0l0,-0.12l0.28,0l0,-1.65l-1.85,0l0,1.54l0.39,0l0,0.24l-0.39,0l0,1.77l1.85,0M18.35,1.77l0,-1.77l-0.39,0l0,-0.24l0.39,0l0,-1.54l-1.85,0l0,1.65l0.28,0l0,0.12l-0.59,0l0,1.46l0.08,0l0.07,0.17l0.17,0.07l0,0.08l1.85,0"></path> </g> <path d="M-13.5,-30.12a30,30 0 0,1 30,30M-11.73,-30.12l-1.77,0M-13.5,-30.12l0,30.12M-13.5,0l1.77,0M-11.73,0l0,-30.12M17.95,0l0.39,0M17.95,-0.24l0,0.24M18.35,-0.24l-0.39,0M16.5,-1.77l1.85,0M16.5,-0.12l0,-1.65M16.77,-0.12l-0.28,0M16.77,0l0,-0.12M16.18,0l0.59,0M16.18,1.46l0,-1.46M16.26,1.46l-0.08,0M16.5,1.7a0.24,0.24 0 0,1 -0.24,-0.24M16.5,1.77l0,-0.08M18.35,1.77l-1.85,0M-13.7,1.69l0,0.08M-13.46,1.46a0.24,0.24 0 0,1 -0.24,0.24M-13.39,1.46l-0.08,0M-13.39,0l0,1.46M-13.98,0l0.59,0M-13.98,-0.12l0,0.12M-13.7,-0.12l-0.28,0M-13.7,-1.77l0,1.65M-15.55,-1.77l1.85,0M-15.16,-0.24l-0.39,0M-15.16,0l0,-0.24M-15.55,0l0.39,0M-13.7,1.77l-1.85,0"></path> </symbol> <symbol id="Single Timber door 813mm 130 wall - 813w X 2032h-1368080-F2" overflow="visible" class="a-door"> <g class="cnc-0"> <path d="M18.35,-1.77l-1.85,0l0,0.08l-0.17,0.07l-0.07,0.17l-0.08,0l0,1.46l0.59,0l0,0.12l-0.28,0l0,1.65l1.85,0l0,-1.54l-0.39,0l0,-0.24l0.39,0l0,-1.77M-13.7,-1.77l-1.85,0l0,1.77l0.39,0l0,0.24l-0.39,0l0,1.54l1.85,0l0,-1.65l-0.28,0l0,-0.12l0.59,0l0,-1.46l-0.08,0l-0.07,-0.17l-0.17,-0.07l0,-0.08"></path> </g> <path d="M16.5,0.12a30,30 0 0,1 -30,30M-11.73,30.61l-1.77,0M-13.5,30.61l0,-30.61M-13.5,0l1.77,0M-11.73,0l0,30.61M18.35,-1.77l-1.85,0M16.5,-1.77l0,0.08M16.26,-1.46a0.24,0.24 0 0,1 0.24,-0.24M16.26,-1.46l-0.08,0M16.18,-1.46l0,1.46M16.18,0l0.59,0M16.77,0l0,0.12M16.77,0.12l-0.28,0M16.5,0.12l0,1.65M16.5,1.77l1.85,0M18.35,0.24l-0.39,0M17.95,0.24l0,-0.24M17.95,0l0.39,0M-13.7,-1.77l-1.85,0M-15.55,0l0.39,0M-15.16,0l0,0.24M-15.16,0.24l-0.39,0M-15.55,1.77l1.85,0M-13.7,1.77l0,-1.65M-13.7,0.12l-0.28,0M-13.98,0.12l0,-0.12M-13.98,0l0.59,0M-13.39,0l0,-1.46M-13.39,-1.46l-0.08,0M-13.7,-1.7a0.24,0.24 0 0,1 0.24,0.24M-13.7,-1.69l0,-0.08"></path> </symbol> <symbol id="Single Timber door 813mm 130 wall - 813w X 2032h-V16-F2" overflow="visible" class="a-door"> <g class="cnc-0"> <path d="M18.35,-1.77l-1.85,0l0,0.08l-0.17,0.07l-0.07,0.17l-0.08,0l0,1.46l0.59,0l0,0.12l-0.28,0l0,1.65l1.85,0l0,-1.54l-0.39,0l0,-0.24l0.39,0l0,-1.77M-13.7,-1.77l-1.85,0l0,1.77l0.39,0l0,0.24l-0.39,0l0,1.54l1.85,0l0,-1.65l-0.28,0l0,-0.12l0.59,0l0,-1.46l-0.08,0l-0.07,-0.17l-0.17,-0.07l0,-0.08"></path> </g> <path d="M16.5,0.12a30,30 0 0,1 -30,30M-11.73,30.61l-1.77,0M-13.5,30.61l0,-30.61M-13.5,0l1.77,0M-11.73,0l0,30.61M18.35,-1.77l-1.85,0M16.5,-1.77l0,0.08M16.26,-1.46a0.24,0.24 0 0,1 0.24,-0.24M16.26,-1.46l-0.08,0M16.18,-1.46l0,1.46M16.18,0l0.59,0M16.77,0l0,0.12M16.77,0.12l-0.28,0M16.5,0.12l0,1.65M16.5,1.77l1.85,0M18.35,0.24l-0.39,0M17.95,0.24l0,-0.24M17.95,0l0.39,0M-13.7,-1.77l-1.85,0M-15.55,0l0.39,0M-15.16,0l0,0.24M-15.16,0.24l-0.39,0M-15.55,1.77l1.85,0M-13.7,1.77l0,-1.65M-13.7,0.12l-0.28,0M-13.98,0.12l0,-0.12M-13.98,0l0.59,0M-13.39,0l0,-1.46M-13.39,-1.46l-0.08,0M-13.7,-1.7a0.24,0.24 0 0,1 0.24,0.24M-13.7,-1.69l0,-0.08"></path> </symbol> <symbol id="System Panel - Glazed-1363062-F2" overflow="visible" class="a-glaz-curt"> <path d="M-2.42,0.75l4.84,0M2.42,0.75l0,-0.31M2.42,0.43l-4.84,0M-2.42,0.43l0,0.31"></path> </symbol> <symbol id="System Panel - Glazed-1364034-F2" overflow="visible" class="a-glaz-curt"> <path d="M-18.79,0.75l37.58,0M18.79,0.75l0,-0.31M18.79,0.43l-37.58,0M-18.79,0.43l0,0.31"></path> </symbol> <symbol id="System Panel - Glazed-1363118-F2" overflow="visible" class="a-glaz-curt"> <path d="M-17.81,0.75l35.61,0M17.81,0.75l0,-0.31M17.81,0.43l-35.61,0M-17.81,0.43l0,0.31"></path> </symbol> <symbol id="System Panel - Glazed-1363120-F2" overflow="visible" class="a-glaz-curt"> <path d="M-2.52,0.75l5.04,0M2.52,0.75l0,-0.31M2.52,0.43l-5.04,0M-2.52,0.43l0,0.31"></path> </symbol> <symbol id="System Panel - Glazed-1363094-F2" overflow="visible" class="a-glaz-curt"> <path d="M-17.67,0.75l35.34,0M17.67,0.75l0,-0.31M17.67,0.43l-35.34,0M-17.67,0.43l0,0.31"></path> </symbol> <symbol id="System Panel - Glazed-1363502-F2" overflow="visible" class="a-glaz-curt"> <path d="M-19.43,0.75l38.87,0M19.43,0.75l0,-0.31M19.43,0.43l-38.87,0M-19.43,0.43l0,0.31"></path> </symbol> <symbol id="System Panel - Glazed-1363074-F2" overflow="visible" class="a-glaz-curt"> <path d="M-7.6,0.75l15.2,0M7.6,0.75l0,-0.31M7.6,0.43l-15.2,0M-7.6,0.43l0,0.31"></path> </symbol> <symbol id="System Panel - Glazed-1364035-F2" overflow="visible" class="a-glaz-curt"> <path d="M-51.34,0.75l-0.51,0M-51.85,0.75l0,-0.31M-51.85,0.43l0.51,0M-51.34,0.43l0,0.31M-19.25,0.75l39.29,0M20.04,0.75l0,-0.31M20.04,0.43l-39.29,0M-19.25,0.43l0,0.31"></path> </symbol> <symbol id="System Panel - Glazed-1363503-F2" overflow="visible" class="a-glaz-curt"> <path d="M-44.02,0.75l88.03,0M44.02,0.75l0,-0.31M44.02,0.43l-88.03,0M-44.02,0.43l0,0.31"></path> </symbol> <symbol id="Rectangular Mullion - 30mm x 75mm-1363051-F2" overflow="visible" class="a-glaz-cwmg"> <path d="M-0.87,-1.48l1.73,0M0.87,-1.48l0,2.95M0.87,1.48l-1.73,0M-0.87,1.48l0,-2.95"></path> </symbol> <symbol id="Railing - Railing-1369824-F2" overflow="visible" class="a-flor-hral"> <path d="M-1166.18,-44738.95l94.09,0M-1072.09,-44738.95l1.97,-1.97M-1070.12,-44740.91l-96.06,0M-1070.12,-44686.58l-1.97,0M-1072.09,-44738.95l0,52.36M-1070.12,-44686.58l0,-54.33"></path> </symbol> <symbol id="Railing - Railing-1370008-F2" overflow="visible" class="a-flor-hral"> <path d="M-1165.18,-44618.87l-1,0M-1165.18,-44738.95l0,120.08"></path> </symbol> <symbol id="Railing - Railing-1370012-F2" overflow="visible" class="a-flor-hral"> <path d="M-1106.16,-44618.87l-1.97,0M-1106.16,-44738.95l0,119.09M-1106.16,-44619.35l0,0.48M-1108.13,-44738.95l0,120.08"></path> </symbol> <symbol id="Railing - Railing-1370016-F2" overflow="visible" class="a-flor-hral"> <path d="M-1070.11,-44626.35l-1.97,0M-1070.11,-44686.58l0,60.24M-1072.07,-44686.58l1.97,0M-1072.07,-44686.58l0,60.24"></path> </symbol> <symbol id="Railing - Railing-1370020-F2" overflow="visible" class="a-flor-hral"> <path d="M-1011.46,-44626.35l-1,0M-1012.46,-44686.58l1,0M-1012.46,-44686.58l0,60.24"></path> </symbol> <symbol id="Railing - Railing-1370076-F2" overflow="visible" class="a-flor-hral"> <path d="M-1072.07,-44626.35l0,6.5M-1072.07,-44619.85l1.97,1.97M-1070.11,-44617.88l0,-8.46M-1108.1,-44617.88l0,-0.98M-1108.1,-44619.33l0,-0.52M-1072.07,-44619.85l-36.02,0M-1108.1,-44617.88l37.99,0"></path> </symbol> <pattern id="diagonalPatterninches" patternUnits="userSpaceOnUse" width="4" height="8" patternTransform="rotate(-45 2 2)"> <path d="M -1,2 l 6,0" stroke="black" stroke-width="2"></path> </pattern><clipPath id="clipCircle"> <rect rx="50%" ry="50%" width="100" height="100" x="-50"></rect> </clipPath></defs> <g id="viewer"> <g id="mirror" transform="scale(1, 1)" stroke-width="0.09%"> <g id="background" fill="none"> </g> <g id="assets" fill="none"> <g id="rm-assets" class="a-area-bndy" fill="transparent"> <path id="A10;3;2006" d="M-1070.51,44532.54l-51.97,0l-47.44,0l0,310.63l125.59,0l0,-163.68l0,-124.7l-23.43,0l0,-22.24z"></path> <path id="A10;3;2005" d="M-1355.55,44941.6l53.54,0l52.56,0l74.02,0l0,-95.87l0,-313.19l-25.69,0l-51.97,0l-48.62,0l-53.84,0l0,133.43l0,140.82z"></path> <path id="A10;3;2005C" d="M-1504.57,44610.49l0,53.15l145.08,0l0,-131.1l-145.08,0z"></path> <path id="A10;3;2005B" d="M-1504.57,44710.89l0,51.97l0,41.6l145.08,0l0,-136.17l-145.08,0z"></path> <path id="A10;3;2005A" d="M-1504.57,44809.11l0,52.96l0,79.53l145.08,0l0,-132.49z"></path> <path id="A10;3;2EL03" d="M-1241.58,45060.49l0,53.74l64.76,0l0,-53.74z"></path> <path id="A10;3;2C04" d="M-1060.08,44955.97l0,-14.37l15.75,0l0,-15.16l0,-63.19l0,-14.96l-125.59,0l0,93.31l16.14,0l0,14.37z"></path> <path id="A10;3;2C02" d="M-1241.58,44955.97l0,93.9l64.76,0l0,-23.62l0,-9.06l10.63,0l0,9.06l95.08,0l0,52.76l59.65,0l0,-123.03l-29.92,0l-18.7,0l-93.7,0l-18.9,0z"></path> <path id="A10;3;2ST01" d="M-1241.58,45124.86l0,94.09l38.45,0l55.12,0l136.55,0l0,-139.96l-59.65,0l0,-52.76l-95.08,0l0,28.94l0,64.37l0,37.99l-10.63,0l0,-32.68z"></path> </g> </g> <g id="annotations" fill="none"></g> <g id="text" font-family="Arial" font-size="1.3" font-weight="normal" text-style="normal" text-anchor="middle" dominant-baseline="alphabetical" fill="#000000" xml:space="preserve"></g> <g id="asset-labels" font-family="Arial" font-weight="bold" font-size="1.5em" text-anchor="middle"> <g id="gros-labels" font-size="0.4em"> </g> <g id="rm-labels" font-size="1em"> <g id="l-rm-A10;3;2006" transform="translate(-1107.29,44692.1)"> <text>2006</text> </g> <g id="l-rm-A10;3;2005" transform="translate(-1261.85,44753.64)"> <text>2005</text> </g> <g id="l-rm-A10;3;2005C" transform="translate(-1433.58,44605.69)"> <text>2005C</text> </g> <g id="l-rm-A10;3;2005B" transform="translate(-1433.58,44753.64)"> <text>2005B</text> </g> <g id="l-rm-A10;3;2005A" transform="translate(-1433.58,44876.13)"> <text>2005A</text> </g> <g id="l-rm-A10;3;2EL03" transform="translate(-1208.93,45100.59)"> <text>2EL03</text> </g> <g id="l-rm-A10;3;2C04" transform="translate(-1107,44913.9)"> <text>2C04</text> </g> <g id="l-rm-A10;3;2C02" transform="translate(-1107,45002.92)"> <text>2C02</text> </g> <g id="l-rm-A10;3;2ST01" transform="translate(-1107,45192.57)"> <text>2ST01</text> </g> </g> </g> </g> </g> </svg>